<svg width="354" height="51" viewBox="0 0 354 51" xmlns="http://www.w3.org/2000/svg"><title>logo-color</title><g fill="none" fill-rule="evenodd"><path d="M59.6 21.4c-3.4 0-6-2.3-6-5.7V5h3v10.6c0 1.8 1.2 3 3 3 1.7 0 2.8-1.2 2.8-3V5h3.2v10.7c0 3.4-2.7 5.7-6 5.7M79.2 21.3l-6.5-10v10h-3.2V5h2.8l6.5 10V5H82v16.3h-2.8M86 21.3h3.3V5H86M99.7 21.3h-2.4L92 5H95l3.3 10.6L101.8 5h3.3l-5.3 16.3M107.8 21.3V5h10.8v2.8H111v3.8h6.5v3H111v3.8h7.6v3h-10.8M130.7 21.3l-3.2-6.5h-2.3v6.5H122V5h6.4c3.4 0 5.3 2.2 5.3 5 0 2.2-1.4 3.7-3 4.2l3.7 7h-3.7zm-2.5-13.5h-3V12h3c1.4 0 2.3-.8 2.3-2 0-1.3-1-2.2-2.3-2.2zM141.8 21.4c-2.5 0-4.4-.5-6-2l2-2.2c1 1 2.5 1.4 4 1.4 2 0 3-.7 3-2 0-.6-.2-1-.6-1.4-.3-.3-.7-.5-1.4-.6l-2-.3c-1.4-.2-2.4-.6-3.2-1.3-.8-.8-1-2-1-3.3 0-3 2-5 5.6-5 2.2 0 3.8.6 5.3 2l-2 2c-1-1-2.3-1-3.4-1-1.6 0-2.5.8-2.5 2 0 .3.2.8.5 1 .3.4 1 .7 1.5.7l2 .3c1.5.2 2.4.6 3 1.3 1 .8 1.4 2 1.4 3.5 0 3-2.8 5-6.2 5M151 21.3h3.2V5H151M164.7 7.8v13.5h-3.2V7.8h-4.3v-3H169v3h-4.3M178.7 14.6v6.7h-3.2v-6.7l-5-9.7h3.5l3 6.5 3-6.6h3.6l-5 9.6M201.7 19.6c-1 1.2-2.5 1.8-4.4 1.8-2 0-3.3-.6-4.4-1.8-1.8-1.6-1.7-3.7-1.7-6.5 0-2.7 0-4.8 1.6-6.4 1-1.2 2.4-1.8 4.3-1.8 2 0 3.3.6 4.4 1.8 1.7 1.6 1.7 3.7 1.7 6.5 0 3 0 5-1.7 6.6zm-2.3-11c-.5-.6-1.2-1-2-1-1 0-1.7.4-2.2 1-.6.6-.7 1.3-.7 4.5 0 3.3 0 4 .7 4.7.5.5 1.2 1 2 1 1 0 1.7-.5 2.2-1 .6-.7.8-1.4.8-4.6 0-3-.2-3.8-.8-4.5zM209.7 7.8v4h6.4v2.8h-6.3v6.7h-3.2V5h10.7v2.8h-7.5M234.5 21.3l-1-3h-5.8l-1 3h-3.4l6-16.4h2.5l6 16.3h-3.3zm-4-11.6l-2 6h4l-2-6zM240.5 21.3V5h3.2v13.4h7.4v3h-10.5M261 21.3h-7V5h6.7c3.2 0 5 1.7 5 4.5 0 1.8-1.2 3-2 3.4 1 .4 2.3 1.4 2.3 3.6 0 3-2 4.7-5 4.7zm-.6-13.5h-3v3.7h3c1.4 0 2-.7 2-1.8 0-1.2-.6-2-2-2zm.2 6.6h-3.3v4h3.3c1.5 0 2.2-1 2.2-2s-.7-2-2.2-2zM269.5 21.3V5h10.7v2.8h-7.6v3.8h6.5v3h-6.4v3.8h7.6v3h-10.7M292.3 21.3l-3.2-6.5H287v6.5h-3.2V5h6.5c3.4 0 5.4 2.2 5.4 5 0 2.2-1.4 3.7-3 4.2l3.6 7h-3.7zM290 7.8h-3.2V12h3c1.5 0 2.4-.8 2.4-2 0-1.3-1-2.2-2.3-2.2zM305 7.8v13.5h-3.2V7.8h-4.3v-3h11.7v3H305M320.3 21.3l-1-3h-5.8l-1 3H309L315 5h2.6l6 16.3h-3.3zm-4-11.6l-2 6h4l-2-6zM56.4 32v6.7h7.8v1.7h-7.8v7.8h-2V30.4h11V32h-9M75 48.4c-3.7 0-6.3-2.5-6.3-6v-12h2v11.8c0 2.7 1.6 4.5 4.2 4.5 2.5 0 4.3-1.8 4.3-4.5V30.4h2v12c0 3.5-2.8 6-6.4 6M91.4 32v16.2h-2v-16h-5v-1.8h12V32h-5M106 48.4c-3.7 0-6.3-2.5-6.3-6v-12h2v11.8c0 2.7 1.6 4.5 4.2 4.5 2.5 0 4.2-1.8 4.2-4.5V30.4h2v12c0 3.5-2.7 6-6.3 6M126.8 48.2l-4-8h-4.3v8h-2V30.4h7c3 0 5.2 2 5.2 5 0 2.6-1.6 4.3-4 4.7l4.3 8.2h-2.2zm-3.6-16h-4.7v6.4h4.7c2 0 3.6-1 3.6-3.2s-1.5-3.3-3.6-3.3zM132.6 48.2V30.4h11V32h-9v6.4h7.7V40h-7.8v6.5h9.2v1.7h-11M153.6 48.2V30.4h11V32h-9v6.4h7.7V40h-7.8v6.5h9v1.7h-11M179.6 48.2L170 34V48h-1.8V30.4h1.8l9.5 14.2V30.4h2v17.8h-2M186 48.2V30.4h11V32h-9v6.4h7.7V40H188v6.5h9v1.7h-11M211 48.2l-4.2-8h-4.3v8h-2V30.4h7c3 0 5.2 2 5.2 5 0 2.6-1.5 4.3-3.8 4.7l4 8.2h-2zm-3.7-16h-4.8v6.4h4.8c2 0 3.5-1 3.5-3.2s-1.4-3.3-3.5-3.3zM227 46.3c-1 1.4-2.8 2-4.6 2-2 0-3.4-.6-4.5-1.7-1.8-1.7-2-3.2-2-7.3 0-4 .2-5.6 2-7.3 1-1 2.5-1.7 4.4-1.7 3.3 0 5.7 2.2 6.2 5.3h-2c-.4-2.3-2-3.6-4.2-3.6-1.3 0-2.3.4-3 1.2-1.2 1.2-1.4 2.5-1.4 6 0 3.8.2 5 1.3 6.2.8.8 1.8 1.3 3 1.3 1.4 0 2.6-.6 3.4-1.6.8-.8 1-1.7 1-3v-1.5h-4.3V39h6.2v2.7c0 2-.3 3.3-1.5 4.6M237.5 41V48h-2V41l-5.2-10.6h2l4.2 8.5 4.2-8.6h2L237.5 41M256 48.4c-2.6 0-4.4-.7-6-2.4l1.2-1.3c1.5 1.5 3 2 5 2 2.5 0 4-1.2 4-3.3 0-1-.2-1.7-.8-2.3-.5-.4-1-.5-2.3-.7l-2-.3c-1.4-.3-2.4-.7-3.2-1.4-1-.8-1.4-2-1.4-3.3 0-3 2.2-5 5.7-5 2.4 0 4 .6 5.4 2l-1.2 1c-1-1-2.3-1.4-4.2-1.4-2.4 0-3.7 1.2-3.7 3.2 0 1 .2 1.6.8 2 .6.6 1.5 1 2.4 1l2 .3c1.7.3 2.5.6 3.3 1.3 1 .8 1.5 2 1.5 3.5 0 3-2.4 5-6.2 5M271 41V48h-1.8V41L264 30.3h2l4 8.5 4.3-8.6h2L271 41M283.7 48.4c-2.7 0-4.5-.7-6-2.4l1.2-1.3c1.3 1.5 2.7 2 4.7 2 2.6 0 4.2-1.2 4.2-3.3 0-1-.3-1.7-1-2.3-.5-.4-1-.5-2.3-.7l-2-.3c-1.4-.3-2.5-.7-3.3-1.4-1-.8-1.4-2-1.4-3.3 0-3 2.2-5 5.7-5 2.3 0 3.8.6 5.3 2l-1.2 1c-1-1-2.3-1.4-4-1.4-2.5 0-4 1.2-4 3.2 0 1 .3 1.6 1 2 .4.6 1.3 1 2.2 1l2 .3c1.7.3 2.5.6 3.3 1.3 1 .8 1.5 2 1.5 3.5 0 3-2.4 5-6 5M299.2 32v16.2h-2v-16h-5v-1.8h12V32h-5M307.6 48.2V30.4h11V32h-9v6.4h7.7V40h-7.8v6.5h9.2v1.7h-11M335.6 48.2V34.7l-5 10.7h-1.5l-4.8-10.7v13.5h-2V30.4h2L330 43l5.6-12.6h2v17.8h-2M347 48.4c-2.6 0-4.4-.7-6-2.4l1.3-1.3c1.4 1.5 2.8 2 4.8 2 2.7 0 4.3-1.2 4.3-3.3 0-1-.2-1.7-.8-2.3-.6-.4-1-.5-2.4-.7l-2-.3c-1.3-.3-2.4-.7-3.2-1.4-1-.8-1.4-2-1.4-3.3 0-3 2.2-5 5.7-5 2.4 0 4 .6 5.4 2l-1.2 1c-1-1-2.3-1.4-4-1.4-2.5 0-4 1.2-4 3.2 0 1 .3 1.6 1 2 .4.6 1.3 1 2.2 1l2 .3c1.7.3 2.5.6 3.3 1.3 1 .8 1.5 2 1.5 3.5 0 3-2.4 5-6 5M19.5 50.2h-.3c-.3-.2-5.8-2-11-6.7C1.4 37.8.7 29.3.7 26V5l.6-.4C6.6 2 12.4 1 19.4 1c7.3 0 13 1 18.2 3.6l.6.3v21c0 3.3-.7 11.8-7.2 17.5C25.6 48 20 50 20 50l-.5.2" fill="#007240"/><path d="M19.5 3C13 3 7.7 4 3 6.4V20c2-1 3.5-2.5 4.8-4 1.4 1.8 3.4 3.4 5.8 4.6 2.5-1.2 4.5-2.8 6-4.5 1.4 1.8 3.4 3.4 5.8 4.6 2.4-1.2 4.4-2.8 5.8-4.5 1.3 1.5 3 3 4.8 4V6.3C31.3 4 26 3 19.5 3zm8.3 11c-1.8 0-3-.2-5-.6h-1c-.7 0-1.3 0-2 .3l-.3.2-.4-.3c-.4-.2-1-.4-1.8-.4h-1c-1.8.5-3.2.8-5 .8h-1l.7-6.3h.8v-2h3.3l1.2-.4h.7c.7-.3 1.4-.2 2 .2.3 0 .4 0 .5.2l.4-.2c.6-.4 1.4-.5 2-.3h.8c.5.3 1 .4 1.3.5 1 0 1.6.2 2.5 0h.6l.3 2h.8l.7 6.3h-1z" fill="#FFF2BD"/><path d="M16.6 11.6c-1.5.4-2.6.6-4 .6L13 7c.8 0 1.4 0 2.2-.2l1.3-.3c.2 0 .4 0 .6-.2.7 0 1 0 1.5.2l.4.2v5c-.8-.3-1.6-.3-2.4 0M22.4 11.6c-.8-.2-1.6-.2-2.3 0V7c.2 0 .3-.2.5-.3.4-.3 1-.3 1.4-.2 0 0 .3 0 .5.2.5 0 1 .2 1.3.3l2 .2h.2l.4 5.2c-1.5 0-2.5-.2-4-.6" fill="#FFFFFE"/><path d="M19.5 22.7c2.2-.5 4-1.2 6-2-2.5-1.3-4.5-3-6-4.6-1.4 1.8-3.5 3.4-6 4.6 2 1 4 1.6 6 2" fill="#488F59"/><path d="M7.8 22.7c1.8.4 3.8.7 6 .7 2 0 4-.3 5.7-.7-2-.5-4-1.2-6-2-1.6.8-3.6 1.5-5.7 2" fill="#17804B"/><path d="M19.5 22.7c1.8.4 3.8.7 6 .7 2 0 4-.3 5.7-.7-2-.5-4-1.2-5.8-2-1.8.8-3.7 1.5-6 2" fill="#17804B"/><path d="M3 23.3c1.7 0 3.3-.2 4.8-.6-1.7-.4-3.3-1-4.8-1.6v2.3" fill="#3E8A55"/><path d="M3 20v1c1.5.8 3 1.3 4.8 1.7 2-.5 4-1.2 5.8-2-2.4-1.3-4.4-3-5.8-4.6-1.3 1.5-3 3-4.8 4" fill="#78A570"/><path d="M36 21c-1.5.8-3 1.3-4.8 1.7 1.5.4 3 .6 4.8.6V21" fill="#3E8A55"/><path d="M36 21v-1c-2-1-3.5-2.5-4.8-4-1.4 1.8-3.4 3.4-5.8 4.6 1.7 1 3.7 1.6 5.8 2 1.7-.3 3.3-.8 4.8-1.5" fill="#78A570"/><path d="M34 26.3c-1-.5-1.7-1-2.8-1-1 0-2 .5-2.7 1-1 .6-2 1.2-3 1.2-1.4 0-2.3-.6-3.2-1.2-1-.5-1.7-1-2.8-1-1 0-2 .5-2.8 1-1 .6-1.8 1.2-3 1.2-1.3 0-2.3-.6-3.2-1.2-.8-.5-1.6-1-2.7-1-1 0-2 .5-2.8 1-.6.4-1.2.8-2 1 0 1 .2 1.8.4 3l1.4-1c1-.5 1.8-1 3-1 1 0 2 .5 3 1 .8.7 1.7 1.2 2.8 1.2 1.2 0 2-.5 3-1 .8-.7 1.7-1.2 3-1.2 1 0 2 .5 3 1 .8.7 1.6 1.2 2.8 1.2 1 0 2-.5 3-1 .8-.7 1.7-1.2 2.8-1.2 1.2 0 2 .5 3 1l1.4 1 .4-3c-.8-.2-1.4-.6-2-1" fill="#FED828"/><path d="M21.2 47.2V46l-1.6 1.4-1.3-1.3v-2l1.3 1.4 1.6-1.5v-2.3l-1.6 1.5-1.3-1.2v-2l1.3 1.2 1.6-1.5v-2.4l-1.6 1.5-1.3-1.2v-2l1.3 1.2 2.3-2-2.5-2-2.5 2v12c1 .5 2 1 2.5 1 .4 0 1-.3 1.7-.6M15.3 42l-1.5 1.5-1.3-1.3v-2l1.3 1.2 1.5-1.5v-2.6L13.8 39l-1.3-1.3v-2l1.3 1 2.2-2-2.3-2L11 35v8l4.3 3v-4M25.5 36.8l2.2-2-2.3-2-2.6 2v11.6l4.3-2.7V42l-1.5 1.5-1.3-1.3v-2l1.3 1.2L27 40v-2.6L25.6 39l-1.3-1.3v-2l1.3 1M31.4 36.8l2.2-2-2.4-2-2.5 2v7.7l.8-.7c1.4-1.2 2.5-2.6 3.4-4v-.4L31.3 39 30 37.7v-2l1.4 1M8 36.8l2-2-2.2-2-2.6 2v1.4c1 2 2.3 4 4.3 5.6v-4.4L8 39l-1.4-1.3v-2l1.3 1" fill="#FFEA97"/></g></svg>